<svg xmlns="http://www.w3.org/2000/svg" viewBox="0 0 1200 700"><defs><linearGradient id="g" x1="0" y1="0" x2="0" y2="1"><stop stop-color="#283e4b"/><stop offset=".52" stop-color="#8b6f5b"/><stop offset=".53" stop-color="#274f5c"/><stop offset="1" stop-color="#102f3d"/></linearGradient></defs><rect width="1200" height="700" fill="url(#g)"/><circle cx="180" cy="250" r="95" fill="#e6b878" opacity=".8"/><path d="M0 455 Q180 385 360 470 T720 455 T1200 445 V700 H0Z" fill="#1d5664"/><path d="M0 505 Q180 450 350 520 T720 500 T1200 515 V700 H0Z" fill="#123e4d"/><path d="M610 155 L640 510 L940 560 L675 515 L400 555 L600 500Z" fill="#b58c65" opacity=".9"/><path d="M625 155 L625 70 L640 70 L655 155Z" fill="#6f503c"/><path d="M632 80 L830 220 L634 190Z" fill="#e9e0c9" opacity=".85"/><path d="M625 90 L430 235 L625 190Z" fill="#d8d1bd" opacity=".9"/><text x="600" y="635" text-anchor="middle" fill="white" font-family="Arial" font-size="54" font-weight="700" opacity=".92">THE ODYSSEY</text></svg>
